<svg xmlns="http://www.w3.org/2000/svg" viewBox="0 0 496.2 496.2"><path d="M496.2 248.1a248.1 248.1 0 1 0-496.3 0 248.1 248.1 0 0 0 496.3 0z" fill="#fabc3d"/><path d="M434.5 248.1a186.4 186.4 0 1 0-372.8 0 186.4 186.4 0 0 0 372.8 0z" fill="#232323"/><path d="M421.6 179.8A187.1 187.1 0 0 0 316 74.4l-70.4 168-171.4 72.8a187.5 187.5 0 0 0 105.9 106.5l71-169.5 170.5-72.4z" fill="#333"/><path d="M409.8 246.7h-3c-.8 0-1.5.7-1.5 1.5 0 86.6-70.5 157.1-157.1 157.1-.8 0-1.5.7-1.5 1.5v3c0 .8.7 1.5 1.5 1.5 43.6 0 84.5-17 115.3-47.8s47.8-71.8 47.8-115.3c0-.8-.6-1.5-1.5-1.5z"/><path d="M248.2 379.5c-.8 0-1.5.7-1.5 1.5v3c0 .8.7 1.5 1.5 1.5 75.7 0 137.3-61.6 137.3-137.3 0-.8-.7-1.5-1.5-1.5h-3c-.8 0-1.5.7-1.5 1.5 0 72.4-58.9 131.3-131.3 131.3z"/><path d="M246.7 353.9v3c0 .8.7 1.5 1.5 1.5 29.4 0 57-11.5 77.8-32.3a109.5 109.5 0 0 0 32.3-77.8c0-.8-.7-1.5-1.5-1.5h-3c-.8 0-1.5.7-1.5 1.5 0 57.4-46.7 104.1-104.1 104.1-.8 0-1.5.6-1.5 1.5zM248.1 91c.8 0 1.5-.7 1.5-1.5v-3c0-.8-.7-1.5-1.5-1.5-43.6 0-84.5 17-115.3 47.8S85 204.6 85 248.1c0 .8.7 1.5 1.5 1.5h3c.8 0 1.4-.6 1.5-1.4v-.2a156 156 0 0 1 46.1-111c29.7-29.6 69.1-46 111-46z"/><path d="M248.1 116.8c.8 0 1.5-.7 1.5-1.5v-3c0-.4-.2-.8-.5-1.1-.3-.3-.6-.4-1.1-.4a137.5 137.5 0 0 0-137.3 137.3c0 .8.7 1.5 1.5 1.5h3c.8 0 1.5-.7 1.5-1.5 0-35 13.7-68 38.5-92.8a131 131 0 0 1 92.9-38.5z"/><path d="M249.6 142.5v-3c0-.4-.2-.8-.4-1.1-.3-.3-.7-.4-1.1-.4A110.2 110.2 0 0 0 138 248.1c0 .8.7 1.5 1.5 1.5h3c.8 0 1.5-.7 1.5-1.5 0-57.4 46.7-104.1 104.1-104.1.8 0 1.5-.7 1.5-1.5z"/><path d="M332.3 248.1a84.2 84.2 0 1 0-168.4 0 84.2 84.2 0 0 0 168.4 0z" fill="#191919"/><path d="M315.8 248.1a67.7 67.7 0 1 0-135.4 0 67.7 67.7 0 0 0 135.4 0z" fill="#29c183"/><circle cx="248.1" cy="248.1" r="11.5" fill="#fff"/></svg>