<?xml version="1.0" standalone="no"?>
<!DOCTYPE svg PUBLIC "-//W3C//DTD SVG 20010904//EN"
 "http://www.w3.org/TR/2001/REC-SVG-20010904/DTD/svg10.dtd">
<svg version="1.0" xmlns="http://www.w3.org/2000/svg"
 width="700.000000pt" height="700.000000pt" viewBox="0 0 700.000000 700.000000"
 preserveAspectRatio="xMidYMid meet">
<metadata>
Created by potrace 1.11, written by Peter Selinger 2001-2013
</metadata>
<g transform="translate(0.000000,700.000000) scale(0.100000,-0.100000)"
fill="#000000" stroke="none">
<path d="M3245 6119 c-879 -83 -1680 -628 -2083 -1417 -211 -413 -305 -834
-289 -1292 10 -277 45 -472 134 -741 189 -579 578 -1070 1111 -1408 200 -126
527 -262 772 -320 464 -110 962 -90 1414 56 394 127 728 329 1030 623 226 220
388 443 527 725 249 506 327 1080 224 1640 -98 527 -351 1004 -735 1385 -499
494 -1166 765 -1870 759 -80 -1 -185 -6 -235 -10z m405 -1679 c368 -58 672
-334 772 -701 33 -121 33 -356 0 -477 -86 -317 -324 -569 -628 -666 -110 -35
-182 -46 -294 -46 -112 0 -184 11 -294 46 -304 97 -541 348 -628 665 -19 71
-23 108 -23 239 0 131 4 168 23 239 98 360 388 630 747 696 86 16 238 18 325
5z"/>
</g>
</svg>
